{"title":"The Minds Eye 2015 720p WEB-DL HEVC 2CH x265","uid":15496164,"size":544517464,"categoryP":"video","categoryS":"hd___movies","magnet":"?xt=urn:btih:2512deeebc8d4ef4a3a33395f29fc0c7f69a9fde&amp;dn=The+Minds+Eye+2015+720p+WEB-DL+HEVC+2CH+x265&amp;tr=udp%3A%2F%2Ftracker.leechers-paradise.org%3A6969&amp;tr=udp%3A%2F%2Fzer0day.ch%3A1337&amp;tr=udp%3A%2F%2Fopen.demonii.com%3A1337&amp;tr=udp%3A%2F%2Ftracker.coppersurfer.tk%3A6969&amp;tr=udp%3A%2F%2Fexodus.desync.com%3A6969","seeders":0,"leechers":0,"uploader":"nayhtut","files":1,"time":1470439835,"description":"[Screenshots]\r\n \nhttps://s31.postimg.org/7bjrwub7v/The_Minds_Eye_2015_720p_WEB_DL_HEVC_2_CH_x265_005.jpg \nhttps://s31.postimg.org/4wrwceuyz/The_Minds_Eye_2015_720p_WEB_DL_HEVC_2_CH_x265_005.jpg \nhttps://s31.postimg.org/4y1u5twsr/The_Minds_Eye_2015_720p_WEB_DL_HEVC_2_CH_x265_007.jpg\r\n\r\n\r\nSource: The Minds Eye 2015 1080p WEB-DL DD5.1 H264-FGT (2.90 GB)\r\n\r\n\r\n__--__--__--__--__--__--__--__--__--__--__--__--__--\r\n\r\n\r\nComplete name                            : The.Minds.Eye.2015.720p.WEB-DL.HEVC.2CH.x265.mkv\r\nFormat                                   : Matroska\r\nFormat version                           : Version 4 / Version 2\r\nFile size                                : 519 MiB\r\nDuration                                 : 1h 27mn\r\nOverall bit rate                         : 831 Kbps\r\nWriting application                      : Lavf57.25.100\r\nWriting library                          : Lavf57.25.100\r\n\r\nVideo\r\n\r\nID                                       : 1\r\nFormat                                   : V_MPEGH/ISO/HEVC\r\nCodec ID                                 : V_MPEGH/ISO/HEVC\r\nDuration                                 : 1h 27mn\r\nBit rate                                 : 622 Kbps\r\nWidth                                    : 1 280 pixels\r\nHeight                                   : 532 pixels\r\nDisplay aspect ratio                     : 2.40:1\r\nFrame rate                               : 25.000 fps\r\nBits/(Pixel*Frame)                       : 0.037\r\nStream size                              : 389 MiB (75%)\r\nWriting library                          : Lavc57.48.101 libx265\r\nLanguage                                 : English\r\nDefault                                  : Yes\r\nForced                                   : No\r\nDURATION                                 : 01:27:25.051000000\r\n\r\nAudio\r\n\r\nID                                       : 2\r\nFormat                                   : AC-3\r\nFormat/Info                              : Audio Coding 3\r\nMode extension                           : CM (complete main)\r\nFormat settings, Endianness              : Big\r\nCodec ID                                 : A_AC3\r\nDuration                                 : 1h 27mn\r\nBit rate mode                            : Constant\r\nBit rate                                 : 192 Kbps\r\nChannel(s)                               : 2 channels\r\nChannel positions                        : Front: L R\r\nSampling rate                            : 48.0 KHz\r\nBit depth                                : 16 bits\r\nCompression mode                         : Lossy\r\nStream size                              : 120 MiB (23%)\r\nWriting library                          : Lavc57.24.102 ac3\r\nLanguage                                 : English\r\nDefault                                  : Yes\r\nForced                                   : No\r\nDURATION                                 : 01:27:25.023000000\r\n\r\nText\r\n\r\nID                                       : 3\r\nFormat                                   : ASS\r\nCodec ID                                 : S_TEXT/ASS\r\nCodec ID/Info                            : Advanced Sub Station Alpha\r\nCompression mode                         : Lossless\r\nWriting library                          : Lavc57.48.101 ssa\r\nLanguage                                 : English\r\nDefault                                  : Yes\r\nForced                                   : No\r\nDURATION                                 : 01:23:31.923000000\r\n\r\nMenu\r\n\r\n00:00:00.000                             : :1\r\n00:10:12.000                             : :2\r\n00:20:28.000                             : :3\r\n00:30:57.000                             : :4\r\n00:42:08.000                             : :5\r\n00:56:41.000                             : :6\r\n01:09:41.000                             : :7\r\n01:23:48.000                             : :8\r\n\r\n__--__--__--__--__--__--__--__--__--__--__--__--__--\r\n\r\n\r\nIMDb: http://www.imdb.com/title/tt4567486\r\n\r\nAfter adding torrent with magnet link,\r\n\r\nplease add this  following trackers list to the torrent for better seeds.\r\n\r\n\r\nudp://tracker.coppersurfer.tk:6969/announce\r\n\r\nudp://tracker.opentrackr.org:1337/announce\r\n \nhttp://tracker.baravik.org:6970/announce\r\n \nhttp://tracker2.wasabii.com.tw:6969/announce\r\n\r\nudp://9.rarbg.me:2710/announce\r\n\r\n\r\n__--__--__--__--__--__--__--__--__--__--__--__--__--\r\n\r\n\r\nEnjoy!","torrent":{"xt":"urn:btih:2512deeebc8d4ef4a3a33395f29fc0c7f69a9fde","amp;dn":"The+Minds+Eye+2015+720p+WEB-DL+HEVC+2CH+x265","amp;tr":["udp%3A%2F%2Ftracker.leechers-paradise.org%3A6969","udp%3A%2F%2Fzer0day.ch%3A1337","udp%3A%2F%2Fopen.demonii.com%3A1337","udp%3A%2F%2Ftracker.coppersurfer.tk%3A6969","udp%3A%2F%2Fexodus.desync.com%3A6969"],"infoHash":"2512deeebc8d4ef4a3a33395f29fc0c7f69a9fde","infoHashBuffer":{"type":"Buffer","data":[37,18,222,238,188,141,78,244,163,163,51,149,242,159,192,199,246,154,159,222]},"announce":[],"urlList":[]}}